<?xml version="1.0" encoding="UTF-8"?>
<!DOCTYPE svg PUBLIC "-//W3C//DTD SVG 1.1//EN" "http://www.w3.org/Graphics/SVG/1.1/DTD/svg11.dtd">
<!-- Creator: CorelDRAW 2018 (64 Bit Versão de avaliação) -->
<svg xmlns="http://www.w3.org/2000/svg" xml:space="preserve" width="2953px" height="2953px" version="1.1" style="shape-rendering:geometricPrecision; text-rendering:geometricPrecision; image-rendering:optimizeQuality; fill-rule:evenodd; clip-rule:evenodd"
viewBox="0 0 2953 2953"
 xmlns:xlink="http://www.w3.org/1999/xlink">
 <defs>
  <style type="text/css">
   <![CDATA[
    .fil3 {fill:url(#id6)}
    .fil1 {fill:url(#id7)}
    .fil6 {fill:url(#id8)}
    .fil5 {fill:url(#id9)}
    .fil2 {fill:url(#id10)}
    .fil4 {fill:url(#id11)}
    .fil0 {fill:url(#id12)}
   ]]>
  </style>
    <clipPath id="id0">
     <path d="M1313.48 360.69l1166.19 -0.5 0 876.09 -1166.19 0.5 0 -876.09z"/>
    </clipPath>
    <clipPath id="id1">
     <path d="M1451.12 348.63l1355.08 0 0 2233.52 -1355.08 0 0 -2233.52z"/>
    </clipPath>
    <clipPath id="id2">
     <path d="M2206.49 1244.04l473.14 0 0 656.85 -473.14 0 0 -656.85z"/>
    </clipPath>
    <clipPath id="id3">
     <path d="M820.32 496.61l524.67 -0.51 0 519.22 -524.67 0.51 0 -519.22z"/>
    </clipPath>
    <clipPath id="id4">
     <path d="M176.87 856.49l1256.87 0 0 1701.42 -1256.87 0 0 -1701.42z"/>
    </clipPath>
    <clipPath id="id5">
     <path d="M239.12 1339.51l726.93 0 0 1157.29 -726.93 0 0 -1157.29z"/>
    </clipPath>
  <linearGradient id="id6" gradientUnits="userSpaceOnUse" x1="1086.19" y1="755.74" x2="1090.14" y2="1218.92">
   <stop offset="0" style="stop-opacity:1; stop-color:white"/>
   <stop offset="1" style="stop-opacity:1; stop-color:#93B8C9"/>
  </linearGradient>
  <linearGradient id="id7" gradientUnits="userSpaceOnUse" x1="2198.61" y1="1324.32" x2="2818.19" y2="1780.18">
   <stop offset="0" style="stop-opacity:1; stop-color:white"/>
   <stop offset="0.631373" style="stop-opacity:1; stop-color:#B9D3DD"/>
   <stop offset="1" style="stop-opacity:1; stop-color:#73A7BA"/>
  </linearGradient>
  <linearGradient id="id8" gradientUnits="userSpaceOnUse" x1="966.05" y1="1918.16" x2="1286.79" y2="1954.03">
   <stop offset="0" style="stop-opacity:1; stop-color:white"/>
   <stop offset="1" style="stop-opacity:1; stop-color:white"/>
  </linearGradient>
  <linearGradient id="id9" gradientUnits="userSpaceOnUse" x1="417.89" y1="1527.37" x2="-76.99" y2="1790.19">
   <stop offset="0" style="stop-opacity:1; stop-color:white"/>
   <stop offset="1" style="stop-opacity:1; stop-color:#73A7BA"/>
  </linearGradient>
  <linearGradient id="id10" gradientUnits="userSpaceOnUse" xlink:href="#id8" x1="2120.05" y1="1394.69" x2="2107.55" y2="1390.53">
  </linearGradient>
  <linearGradient id="id11" gradientUnits="userSpaceOnUse" x1="847.23" y1="2115" x2="306.41" y2="2575.78">
   <stop offset="0" style="stop-opacity:1; stop-color:white"/>
   <stop offset="0.611765" style="stop-opacity:1; stop-color:#B9D3DD"/>
   <stop offset="1" style="stop-opacity:1; stop-color:#73A7BA"/>
  </linearGradient>
  <linearGradient id="id12" gradientUnits="userSpaceOnUse" x1="1588.79" y1="823.72" x2="2939.05" y2="823.13">
   <stop offset="0" style="stop-opacity:1; stop-color:white"/>
   <stop offset="0.988235" style="stop-opacity:1; stop-color:#B9D3DD"/>
   <stop offset="1" style="stop-opacity:1; stop-color:#73A7BA"/>
  </linearGradient>
 </defs>
 <g id="Camada_x0020_1">
  <metadata id="CorelCorpID_0Corel-Layer"/>
  <g id="_1405531354880">
   <g style="clip-path:url(#id0)">
    <image x="1313.48" y="360.19" width="1166.19" height="876.59" xlink:href="vetor5_Images\vetor5_ImgID1.png"/>
   </g>
  </g>
  <path class="fil0" d="M2209.51 485.42c-302.29,185.9 -551.12,149.46 -672.67,122.22 -42.46,-9.52 -58.61,14.95 -82.95,42.62 -53.53,60.84 -40.78,176.09 -35.37,243.72 1.4,17.51 10.11,62.92 62.75,84.38 0,0 60.86,28.08 113.5,12.42 62.67,-18.63 69.77,-36.96 204.08,-31.15 110.53,4.79 153.77,78.43 239.35,176.02 181.86,-35.26 475.69,-317.01 301.79,-630.67 0,0 -32.28,-24.83 -60.16,-39.93 -20.14,-10.9 -49.29,7.44 -70.32,20.37z"/>
  <g id="_1405531355360">
   <g style="clip-path:url(#id1)">
    <image x="1451.12" y="348.63" width="1355.07" height="2233.53" xlink:href="vetor5_Images\vetor5_ImgID2.png"/>
   </g>
  </g>
  <path class="fil1" d="M2378.69 532.65c-9.31,-8.38 -38.7,-27.67 -38.7,-27.67 146.78,536.54 -542.47,567.16 -699.95,1216.6 -56.64,233.57 -61.88,590.01 172.12,675.79 97.96,35.91 84.24,37.4 80.24,6.73 -18.6,-142.46 9.89,-268.99 51.42,-390.3 123.28,-360.12 367.55,-507.24 561.72,-728.7 177.91,-202.91 247.69,-458.26 -126.85,-752.45z"/>
  <g id="_1405531353120">
   <g style="clip-path:url(#id2)">
    <image x="2206.49" y="1244.04" width="473.14" height="656.85" xlink:href="vetor5_Images\vetor5_ImgID3.png"/>
   </g>
  </g>
  <path class="fil2" d="M2516.67 1289.55c1.68,-3.05 -384.29,-136.19 -267.22,267.08 49.09,174.12 273.04,272.29 311.75,255.22 86.22,-66.52 -42.05,-105.97 -24.73,-273.78 10.65,-103.29 112.19,-195.38 -5.8,-243.42 -4.31,-1.75 -8.98,-3.46 -14,-5.1z"/>
  <g id="_1405531353280">
   <g style="clip-path:url(#id3)">
    <image x="820.32" y="496.1" width="524.67" height="519.72" xlink:href="vetor5_Images\vetor5_ImgID4.png"/>
   </g>
  </g>
  <path class="fil3" d="M1091.33 556.07c-113.45,0.36 -209.06,75.15 -211.1,200.09 -1.77,108.18 90.62,202.28 210.44,199.24 119.51,-3.03 194.86,-97.02 194.42,-203.87 -0.48,-114.6 -90.11,-195.78 -193.76,-195.46z"/>
  <g id="_1404924769616">
   <g style="clip-path:url(#id4)">
    <image x="176.87" y="856.49" width="1256.87" height="1701.42" xlink:href="vetor5_Images\vetor5_ImgID5.png"/>
   </g>
  </g>
  <path class="fil4" d="M1286.79 1954.03c-0.5,6.94 -0.43,-630.41 1.92,-858.66 0.51,-49.24 -40.82,-93.92 -91.08,-93.86 -84.18,0.1 -150.41,0.04 -222.66,0.02 -50.95,-0.01 -94,5.64 -93.93,94.59 0.07,93.1 0.94,485.15 0.94,485.15 3.92,249.59 -79.96,483.52 -277.93,478.5 -54.69,-1.39 -97.94,-33.03 -97.94,-33.03 0,0 -1.95,-227 -0.94,-250.54 0,0 234.28,-2.36 234.28,-2.36 22.66,-3.7 41.68,-16.61 -3.62,-48.7 0,0 -342.13,-292 -342.13,-292 -35.11,-21.42 -61.12,-8.21 -70.7,23.97 -2.49,8.35 0,278.93 0,278.93 -0.97,84.32 42.65,173.93 136.42,256.99 0.89,0.79 1.58,1.15 1.58,1.15 -0.18,245.37 157.02,418.7 421.17,418.71 225.1,0 407.76,-202.68 404.62,-458.86z"/>
  <path class="fil5" d="M505.23 2000.14c0,0 -1.07,-200.39 -0.06,-223.94 0,0 234.28,-2.36 234.28,-2.36 22.66,-3.7 41.68,-16.61 -3.62,-48.7 0,0 -342.13,-292 -342.13,-292 -35.11,-21.42 -61.12,-8.21 -70.7,23.97 -2.49,8.35 0,278.93 0,278.93 -1.85,91.77 53.58,183.74 134.84,255.83 0.88,0.78 1.58,1.16 1.58,1.16 -0.18,245.37 158.61,422.5 422.75,419.86 -327.55,-13.95 -375.84,-285.65 -376.94,-412.75z"/>
  <g id="_1405526595360">
   <g style="clip-path:url(#id5)">
    <image x="239.12" y="1339.51" width="726.93" height="1157.29" xlink:href="vetor5_Images\vetor5_ImgID6.png"/>
   </g>
  </g>
  <path class="fil6" d="M458.74 1854.16c0.11,-249.23 -1.95,-257.24 -135.74,-397.05 7.26,-27.05 33.77,-46.22 70.7,-23.97l342.13 292c45.3,32.09 26.28,45 3.62,48.7 0,0 -234.28,2.36 -234.28,2.36 -1.01,23.55 0.06,223.94 0.06,223.94 1.1,127.1 49.39,398.8 376.94,412.75 -447.25,4.47 -415.51,-386.81 -421.97,-390.31 0,0 -3.43,-53.2 -1.46,-168.42z"/>
 </g>
</svg>
